<svg width="603" height="182" viewBox="0 0 603 182" fill="none" xmlns="http://www.w3.org/2000/svg">
<path d="M373.642 141.938C338.643 167.735 287.913 181.499 244.236 181.499C182.994 181.499 127.86 158.848 86.1485 121.174C82.8714 118.212 85.8077 114.174 89.7402 116.482C134.755 142.672 190.413 158.428 247.906 158.428C286.681 158.428 329.336 150.406 368.556 133.758C374.481 131.242 379.436 137.639 373.642 141.938Z" fill="#FF9900"/>
<path d="M388.193 125.29C383.736 119.575 358.62 122.59 347.347 123.927C343.913 124.347 343.388 121.358 346.482 119.208C366.485 105.13 399.309 109.193 403.136 113.912C406.964 118.657 402.14 151.56 383.343 167.263C380.459 169.675 377.706 168.391 378.991 165.192C383.212 154.653 392.676 131.032 388.193 125.29Z" fill="#FF9900"/>
<path d="M348.133 19.8199V6.13469C348.133 4.06356 349.706 2.67407 351.594 2.67407H412.863C414.829 2.67407 416.402 4.08978 416.402 6.13469V17.8536C416.376 19.8199 414.724 22.3891 411.788 26.4527L380.039 71.7817C391.837 71.4933 404.29 73.2498 414.986 79.2797C417.398 80.643 418.054 82.6354 418.237 84.6017V99.2045C418.237 101.197 416.035 103.53 413.728 102.324C394.878 92.4405 369.841 91.3656 348.998 102.429C346.875 103.583 344.646 101.276 344.646 99.2831V85.4144C344.646 83.186 344.673 79.3845 346.901 76.0026L383.683 23.2543H351.673C349.706 23.2543 348.133 21.8648 348.133 19.8199Z" fill="#221F1F"/>
<path d="M124.635 105.208H105.995C104.212 105.077 102.796 103.74 102.665 102.036V6.3706C102.665 4.45677 104.264 2.93618 106.257 2.93618H123.639C125.447 3.01478 126.889 4.40432 127.021 6.13463V18.6401H127.361C131.897 6.5541 140.417 0.91748 151.9 0.91748C163.567 0.91748 170.855 6.5541 176.098 18.6401C180.608 6.5541 190.858 0.91748 201.843 0.91748C209.656 0.91748 218.203 4.14215 223.42 11.378C229.319 19.4266 228.113 31.1193 228.113 41.3701L228.086 101.747C228.086 103.661 226.487 105.208 224.495 105.208H205.881C204.019 105.077 202.525 103.583 202.525 101.747V51.0441C202.525 47.0067 202.892 36.9394 202.001 33.1118C200.611 26.6887 196.443 24.8797 191.042 24.8797C186.533 24.8797 181.814 27.8946 179.9 32.7185C177.986 37.5424 178.17 45.6172 178.17 51.0441V101.747C178.17 103.661 176.57 105.208 174.578 105.208H155.964C154.076 105.077 152.608 103.583 152.608 101.747L152.582 51.0441C152.582 40.3738 154.338 24.6699 141.099 24.6699C127.702 24.6699 128.226 39.9806 128.226 51.0441V101.747C128.226 103.661 126.627 105.208 124.635 105.208Z" fill="#221F1F"/>
<path d="M469.15 0.91748C496.809 0.91748 511.779 24.6699 511.779 54.8717C511.779 84.0511 495.236 107.201 469.15 107.201C441.99 107.201 427.203 83.4481 427.203 53.8493C427.203 24.067 442.173 0.91748 469.15 0.91748ZM469.308 20.449C455.57 20.449 454.705 39.1679 454.705 50.8344C454.705 62.5271 454.521 87.4855 469.15 87.4855C483.596 87.4855 484.277 67.351 484.277 55.0815C484.277 47.0067 483.937 37.3589 481.498 29.7036C479.401 23.0445 475.233 20.449 469.308 20.449Z" fill="#221F1F"/>
<path d="M547.644 105.208H529.082C527.221 105.077 525.726 103.583 525.726 101.747L525.7 6.05598C525.857 4.29945 527.404 2.93618 529.292 2.93618H546.569C548.194 3.01478 549.531 4.11594 549.898 5.6103V20.2393H550.239C555.456 7.15709 562.771 0.91748 575.643 0.91748C584.006 0.91748 592.16 3.93242 597.403 12.1907C602.28 19.846 602.28 32.7185 602.28 41.9731V102.193C602.07 103.871 600.523 105.208 598.688 105.208H579.995C578.291 105.077 576.875 103.819 576.692 102.193V50.2314C576.692 39.7709 577.898 24.4602 565.025 24.4602C560.49 24.4602 556.321 27.5014 554.25 32.1155C551.629 37.9619 551.288 43.782 551.288 50.2314V101.747C551.262 103.661 549.636 105.208 547.644 105.208Z" fill="#221F1F"/>
<path d="M299.291 59.5122V55.4748C285.816 55.4748 271.58 58.3587 271.58 74.2461C271.58 82.2947 275.749 87.7478 282.906 87.7478C288.149 87.7478 292.842 84.5231 295.805 79.2797C299.475 72.8304 299.291 66.7743 299.291 59.5122ZM318.089 104.946C316.857 106.047 315.074 106.126 313.685 105.392C307.497 100.253 306.396 97.8675 302.988 92.9649C292.763 103.399 285.528 106.519 272.262 106.519C256.584 106.519 244.367 96.845 244.367 77.4708C244.367 62.3437 252.573 52.0404 264.24 47.0068C274.359 42.5499 288.49 41.7634 299.291 40.5312V38.1193C299.291 33.6886 299.632 28.4453 297.037 24.6176C294.756 21.1832 290.404 19.7675 286.576 19.7675C279.472 19.7675 273.127 23.4116 271.58 30.9621C271.266 32.64 270.033 34.2916 268.356 34.3703L250.266 32.4302C248.745 32.0894 247.068 30.8572 247.487 28.5239C251.655 6.60666 271.449 0 289.172 0C298.243 0 310.093 2.41195 317.25 9.28076C326.321 17.7488 325.456 29.0483 325.456 41.344V70.3922C325.456 79.1225 329.074 82.9501 332.482 87.6691C333.688 89.347 333.95 91.3657 332.43 92.6241C328.628 95.7964 321.864 101.695 318.141 104.998L318.089 104.946Z" fill="#221F1F"/>
<path d="M54.9243 59.5122V55.4748C41.4488 55.4748 27.2131 58.3587 27.2131 74.2461C27.2131 82.2947 31.3815 87.7478 38.5387 87.7478C43.7821 87.7478 48.4749 84.5231 51.4374 79.2797C55.1078 72.8304 54.9243 66.7743 54.9243 59.5122ZM73.7218 104.946C72.4896 106.047 70.7068 106.126 69.3173 105.392C63.1302 100.253 62.029 97.8675 58.6208 92.9649C48.3963 103.399 41.1605 106.519 27.8947 106.519C12.217 106.519 0 96.845 0 77.4708C0 62.3437 8.20587 52.0404 19.8724 47.0068C29.9921 42.5499 44.1229 41.7634 54.9243 40.5312V38.1193C54.9243 33.6886 55.2651 28.4453 52.6696 24.6176C50.3888 21.1832 46.0368 19.7675 42.2091 19.7675C35.1044 19.7675 28.7599 23.4116 27.2131 30.9621C26.8985 32.64 25.6663 34.2916 23.9884 34.3703L5.89879 32.4302C4.37821 32.0894 2.70033 30.8572 3.1198 28.5239C7.28828 6.60666 27.082 0 44.8046 0C53.8756 0 65.7256 2.41195 72.8828 9.28076C81.9539 17.7488 81.0887 29.0483 81.0887 41.344V70.3922C81.0887 79.1225 84.7066 82.9501 88.1148 87.6691C89.3208 89.347 89.583 91.3657 88.0624 92.6241C84.2609 95.7964 77.497 101.695 73.7742 104.998L73.7218 104.946Z" fill="#221F1F"/>
</svg>
