<svg width="238" height="100" viewBox="0 0 238 100" fill="none" xmlns="http://www.w3.org/2000/svg">
<path d="M204.536 43.6787C200.562 44.5958 190.067 45.1052 190.067 45.1052L188.776 49.2489C188.776 49.2489 193.973 48.8074 197.777 49.181C197.777 49.181 199 49.0791 199.136 50.5396C199.204 52.034 199.034 53.5964 199.034 53.5964C199.034 53.5964 198.932 54.5135 197.675 54.7512C196.215 54.989 186.365 55.4305 186.365 55.4305L184.768 60.797C184.768 60.797 184.191 62.0197 185.516 61.68C186.738 61.3404 197.064 59.3704 198.422 59.6422C199.849 59.9818 201.479 61.9518 201.004 63.7179C200.46 65.8577 190.135 72.4469 183.885 72.0053C183.885 72.0053 180.591 72.2091 177.84 67.7597C175.19 63.5141 178.757 55.5324 178.757 55.5324C178.757 55.5324 177.16 51.7963 178.349 50.4377C178.349 50.4377 179.028 49.8603 181.066 49.6905L183.614 44.4599C183.614 44.4599 180.727 44.6297 179.028 42.5239C177.466 40.486 177.33 39.6029 178.553 39.0595C179.844 38.3802 191.799 36.2404 200.019 36.5121C200.019 36.5121 202.906 36.1725 205.453 41.1653C205.453 41.1653 206.608 43.2032 204.57 43.6787M173.56 63.7859C172.541 66.2653 169.722 68.8806 166.326 67.2842C162.861 65.6539 157.393 54.5135 157.393 54.5135C157.393 54.5135 155.355 50.3698 154.947 50.5056C154.947 50.5056 154.506 49.6905 154.268 54.2418C153.928 58.7591 154.336 67.556 152.468 68.9485C150.77 70.3071 148.732 69.7297 147.577 68.1334C146.626 66.537 146.218 62.699 146.762 56.0079C147.373 49.3169 148.902 42.1843 150.838 39.9765C152.876 37.7349 154.506 39.3652 155.117 39.9765C155.117 39.9765 157.733 42.3541 162.148 49.3848L162.895 50.6755C162.895 50.6755 166.903 57.3665 167.311 57.3326C167.311 57.3326 167.65 57.6722 167.922 57.4005C168.33 57.2986 168.194 55.1248 168.194 55.1248C168.194 55.1248 167.446 47.8903 163.71 35.663C163.71 35.663 163.167 34.1006 163.54 32.6062C163.88 31.2476 165.341 31.9269 165.341 31.9269C165.341 31.9269 170.979 34.6441 173.73 43.8146C176.447 52.9851 174.613 61.3064 173.594 63.7859M145.913 40.2483C145.369 41.1993 145.132 42.5239 142.788 42.8975C142.788 42.8975 120.032 44.4939 118.911 46.0902C118.911 46.0902 118.164 47.0412 119.386 47.279C120.677 47.5507 125.84 48.23 128.285 48.3658C130.934 48.3658 139.833 48.4338 143.094 52.4416C143.094 52.4416 144.962 54.3437 144.894 58.6572C144.826 63.0726 144.045 64.635 142.312 66.2313C140.512 67.7258 125.092 74.6546 115.141 64.0576C115.141 64.0576 110.589 58.9629 116.737 55.0909C116.737 55.0909 121.152 52.3737 132.463 55.5324C132.463 55.5324 135.859 56.7552 135.723 58.0118C135.52 59.3704 132.904 60.729 129.1 60.6611C125.432 60.5592 122.715 58.793 123.258 59.0987C123.768 59.2685 119.284 56.925 117.892 58.5213C116.533 60.0158 116.873 60.8989 118.231 61.8159C121.628 63.7859 134.976 63.0726 138.95 58.6232C138.95 58.6232 140.546 56.8231 138.135 55.3626C135.757 54.004 128.828 53.1549 126.145 53.053C123.598 52.9171 114.054 53.053 112.627 50.5736C112.627 50.5736 111.269 48.8074 112.763 43.9844C114.326 38.8897 125.432 36.9197 130.255 36.5121C130.255 36.5121 143.501 35.9687 145.981 38.6859C145.981 38.6859 146.32 39.2973 145.913 40.2143M108.348 70.1033C106.751 71.2921 103.355 70.7826 102.37 69.424C101.419 68.2352 101.079 63.5481 101.249 56.1777C101.487 48.6376 101.589 39.3991 103.287 37.9047C104.985 36.4442 106.004 37.7349 106.683 38.7198C107.363 39.7388 108.246 40.8596 108.382 43.2032C108.585 45.5807 109.163 57.8081 109.163 57.8081C109.163 57.8081 109.91 68.9485 108.382 70.1033M111.744 30.3645C107.057 31.9609 103.864 31.4514 101.147 30.2626C99.9584 32.4024 99.2451 33.0477 98.3621 33.1836C97.0035 33.3194 95.8147 31.1457 95.6449 30.4664C95.3732 29.9569 94.7278 29.0399 95.509 26.968C92.8598 24.5905 92.656 21.3978 93.1315 19.258C93.7429 16.7446 98.2262 7.30242 111.812 6.18158C111.812 6.18158 118.469 5.70608 119.624 9.23841H119.828C119.828 9.23841 126.281 9.23841 126.145 15.0124C126.145 20.7864 119.013 27.987 111.744 30.4664M117.79 13.9256C113.51 14.6048 106.921 20.3109 103.762 25.032C108.619 25.9151 117.111 25.5755 120.915 17.8994C120.915 17.8994 122.715 13.0764 117.79 13.9256ZM99.0074 17.6617C97.6488 19.8694 97.5809 21.194 98.2262 22.0771C99.8226 19.6996 102.642 15.9634 106.887 13.0425C103.627 13.3821 100.875 14.7407 99.0074 17.6617ZM214.725 69.8656C211.601 77.5416 208.951 85.3195 207.423 96.9695C207.423 96.9695 207.083 99.2451 205.215 98.4979C203.347 97.8186 200.29 94.7618 199.611 90.4482C198.932 84.8101 201.445 75.2999 206.574 64.3633C205.079 61.9857 204.027 58.4534 204.876 53.4945C204.876 53.4945 206.234 44.324 215.405 36.0366C215.405 36.0366 216.492 35.1196 217.103 35.4253C217.85 35.7649 217.544 38.6859 216.933 40.1803C216.39 41.6069 212.314 48.6715 212.314 48.6715C212.314 48.6715 209.767 53.4945 210.48 57.2646C215.303 49.8603 226.273 34.8479 233.066 39.6029C237.38 42.6598 237.38 52.5096 234.153 58.2156C231.606 62.733 224.405 72.0733 214.793 69.8995M228.923 46.8035C226.409 49.5207 221.926 54.6833 218.394 61.68C222.13 61.2725 225.764 59.2006 226.885 58.1477C228.685 56.5514 232.829 52.2378 232.183 46.5317C232.183 46.5317 231.776 43.5428 228.923 46.8035ZM76.7605 73.8734C64.7369 77.5416 53.3927 75.8434 47.2111 74.2131C47.0413 76.7264 46.7696 77.7794 46.362 78.1869C45.8865 78.7304 41.9466 80.972 39.7728 77.7794C38.8218 76.2509 38.3463 73.4998 38.0746 70.9864C24.149 64.6689 17.6957 55.3626 17.4919 55.0229C17.1523 54.6833 13.9935 51.3887 17.1523 47.3129C20.1072 43.6447 29.8891 39.9426 38.652 38.4821C38.9916 31.0098 39.8068 25.2358 40.8597 22.6885C42.1164 19.6316 43.7127 22.3488 45.1392 24.3867C46.294 25.9151 47.0073 32.4703 47.0752 37.7009C52.7813 37.4292 56.2457 37.8368 62.5971 39.0595C70.9525 40.486 76.5227 44.7656 76.0812 49.5886C75.6736 54.3437 71.3261 56.3136 69.6279 56.4495C67.9296 56.5853 65.2124 55.3286 65.2124 55.3286C63.3104 54.4455 65.0426 53.6304 67.2503 52.6794C69.6958 51.4906 69.1523 50.3018 69.1523 50.3018C68.2693 47.5847 57.4345 45.7845 46.6677 45.7845C46.6677 51.7284 46.9054 61.5782 47.0752 67.3182C54.6154 68.7447 60.2536 68.439 60.2536 68.439C60.2536 68.439 87.7651 67.6578 88.5462 50.0981C89.3954 32.5043 61.0348 15.6578 40.1464 10.3593C19.292 4.89092 7.47229 8.76291 6.45335 9.27238C5.33251 9.81581 6.35146 10.0196 6.35146 10.0196C6.35146 10.0196 7.47229 10.1894 9.51018 10.8687C11.5481 11.548 9.91776 12.567 9.91776 12.567C6.35146 13.7897 2.37758 13.0764 1.59639 11.4461C0.815197 9.84978 2.10586 8.38929 3.63427 6.24951C5.06079 4.0418 6.6911 4.10973 6.6911 4.10973C32.5043 -4.89094 64.0237 11.2423 64.0237 11.2423C93.5051 26.1189 98.5319 43.6108 97.9884 50.4037C97.5129 57.0948 94.9316 68.4051 76.7605 73.9074M20.0393 49.5886C17.1183 50.9472 19.1562 53.1209 19.1562 53.1209C24.6585 58.9968 31.3835 62.699 37.8368 65.0086C38.584 54.8192 38.5161 51.1849 38.5161 46.0562C28.5305 46.7355 22.7564 48.3658 20.0393 49.5886Z" fill="black"/>
</svg>
