<svg xmlns="http://www.w3.org/2000/svg" xml:space="preserve" id="Logo_00000152252418857761589150000000798012301435666049_" width="884.115" height="162.737" x="0" y="0" version="1.1"><style id="style146" type="text/css">.st1{fill:#ff4c46}.st2{fill:#fff}</style><path id="rect148" d="M-77.685-25.563h1000v233h-1000z" style="fill:none"/><g id="g190" transform="translate(-77.685 -25.563)"><g id="g152"><path id="path150" d="m238.4 48-52.5 4.7c-9.1-5.3-18.1-7.4-27.6-7.4-2.5 0-5.1.2-7.7.7L95.7 25.7c-2.2-.8-3.8 2.1-1.9 3.5l33.7 26.1c-7.1 4.4-13.8 10.2-19.7 16.8-10 11.5-22.6 43.3-28.8 59.8-2.6 7.1-1.3 15 3.5 20.8 11.2 13.6 34.4 35.6 79 35.6 40.9 0 61.6-18.4 71.3-31.8 5.4-7.5 7-17 4.3-25.8-4.4-14.9-13.7-40.7-28.8-58.4-.5-.6-1.1-1.2-1.6-1.8l32.7-19.4c1.6-.8.8-3.2-1-3.1z" class="st1"/></g><g id="g160"><path id="path154" d="M183.6 143.8c-3.9 1.4-12.7 3.5-22.5-1.6-.5-.3-1 .4-.6.8 3.1 3.3 8.6 9.2 12 12 .7.6 1.8.5 2.4-.2l9.3-10.3c.4-.2 0-.8-.6-.7z" class="st2"/><path id="path156" d="M219.9 101.1c-5-10.8-12.4-20.9-23.7-22.1-2-.2-4.1.2-5.8 1.3l-12.3 7.3c-3.1 1.8-6.9 1.6-9.7-.6l-10.7-8.3c-3.6-2.8-7.7-4.8-12.1-5.8-18.3-4.3-30.7 5.3-40.1 23.3-9 17.2-4 42 18.1 47.8 23.3 6.2 38.7-19.7 44.9-28.3 1.2-1.7 3.6-1.7 4.8 0 9.6 13 22.4 26.9 36.2 24.1 18.2-3.7 16-26.5 10.4-38.7zm-67.5 13.7c-4.5 3-10.2 2.3-13.6-2.8-3.4-5.1-1.9-10.7 2.6-13.7s10.2-2.3 13.6 2.8c3.4 5.1 1.9 10.7-2.6 13.7zm47.7.9c-4.5 3-10.2 2.3-13.6-2.8-3.4-5.1-1.9-10.7 2.6-13.7s10.2-2.3 13.6 2.8c3.4 5.1 1.9 10.7-2.6 13.7z" class="st2"/><path id="path158" d="M173.1 122.3c-.9-1-2.6-1-3.5.1l-9.8 11.6c-.5.5-.4 1.4.2 1.8 2.3 1.6 7.8 5.2 13.2 5.2 5 0 9.5-1.9 11.7-3 .7-.4.9-1.3.4-1.9z" class="st2"/></g><g id="g188"><g id="g186"><path id="path162" d="M284.3 155.2V77.6h17.2v33.7h57.1V77.6h17.2v77.6h-17.2v-29.4h-57.1v29.4z" class="st1"/><path id="path164" d="M424.6 157.1c-11.4 0-20.6-3-27.5-8.9-7-5.9-10.4-13.7-10.4-23.4s3.5-17.5 10.4-23.4c7-5.9 16.1-8.9 27.5-8.9 11.5 0 20.7 3 27.7 8.9s10.4 13.7 10.4 23.4-3.5 17.5-10.4 23.4c-7 6-16.3 8.9-27.7 8.9zm0-13.3c6.6 0 12-1.7 16-5.2s6.1-8 6.1-13.7c0-5.7-2-10.4-6.1-13.8-4-3.5-9.4-5.2-16-5.2s-11.8 1.8-15.9 5.3c-4 3.5-6.1 8.1-6.1 13.8 0 5.7 2 10.2 6.1 13.7 4 3.4 9.3 5.1 15.9 5.1z" class="st1"/><path id="path166" d="M508.3 157.1c-11.4 0-20.6-3-27.5-8.9-7-5.9-10.4-13.7-10.4-23.4s3.5-17.5 10.4-23.4c7-5.9 16.1-8.9 27.5-8.9 11.5 0 20.7 3 27.7 8.9s10.4 13.7 10.4 23.4-3.5 17.5-10.4 23.4c-7 6-16.2 8.9-27.7 8.9zm0-13.3c6.6 0 12-1.7 16-5.2s6.1-8 6.1-13.7c0-5.7-2-10.4-6.1-13.8-4-3.5-9.4-5.2-16-5.2s-11.8 1.8-15.9 5.3c-4 3.5-6.1 8.1-6.1 13.8 0 5.7 2 10.2 6.1 13.7 4.1 3.4 9.4 5.1 15.9 5.1z" class="st1"/><path id="path168" d="M578.2 156.4c-7.6 0-11.9-3.5-14.1-6.7-2.3-3.2-4.1-7.3-4.1-16.3V107h-8.7V94.6h11.2v-17h14.8v17h17.5V107h-17.5v22.7c-.1 6.8 1 9.2 2.6 10.9 2.9 2.9 11.7.9 14.9-1.1v13.1c-3.8 2.6-10.4 3.8-16.6 3.8z" class="st1"/><path id="path170" d="M638.6 157.1c-10.8 0-21.6-1.6-32.5-4.7v-13.8c9.1 3.5 19 5.2 29.7 5.2 7.7 0 13.2-.5 16.5-1.5 3.3-1 5-2.7 5-5.2 0-2.3-1.8-4-5.5-4.9-3.7-.9-8.2-1.5-13.5-1.8-5.3-.2-10.6-.7-15.9-1.4-5.3-.7-9.8-2.4-13.5-5-3.7-2.7-5.5-6.4-5.5-11.3 0-6.6 3.2-11.6 9.6-15 6.4-3.4 15.1-5.1 26.1-5.1 8.7 0 18.8 1.1 30.3 3.4v13.3c-9.9-2.1-19.5-3.2-28.5-3.2-13.7 0-20.6 2.1-20.6 6.3 0 2.1 1.9 3.6 5.6 4.4 3.7.8 8.2 1.4 13.5 1.8 5.3.3 10.5.9 15.8 1.6 5.3.8 9.8 2.5 13.5 5.3 3.7 2.8 5.6 6.6 5.6 11.5 0 6.8-3.2 11.8-9.5 15.1-6.3 3.4-15 5-26.2 5z" class="st1"/><path id="path172" d="M756.6 94.6v60.7h-18.9l2.4-25h-1c-2.8 18-12.8 26.9-29.8 26.9-8.7-.2-15.1-3-19.2-8.6-4-5.5-6.1-14.8-6.1-27.7V94.6h17.2v24.3c0 9.1 1.3 15.6 3.9 19.5 2.6 3.9 6.8 5.8 12.7 5.8 6.6 0 11.8-3 15.6-9 3.9-6 5.8-13.9 5.8-23.9V94.6Z" class="st1"/><path id="path174" d="M780 88.7c-3.3 0-5.9-.8-7.8-2.5-1.9-1.7-2.8-4.1-2.8-7.3s.9-5.7 2.8-7.3c1.9-1.6 4.4-2.4 7.8-2.4 3.4 0 6 .8 7.9 2.4 1.9 1.6 2.9 4 2.9 7.3 0 6.5-3.6 9.8-10.8 9.8zm-8.4 66.5V94.6h17.2v60.7h-17.2z" class="st1"/><path id="path176" d="M885.9 157.1c-11 0-19.8-3-26.5-8.9-6.7-5.9-10-13.7-10-23.4s3.3-17.5 10-23.4c6.7-5.9 15.5-8.9 26.5-8.9 10.8 0 19.6 2.5 26.3 7.6 6.7 5.1 10.1 11.7 10.3 20v9.9H866c1 4.9 3.5 8.5 7.7 10.7 4.2 2.2 10.3 3.3 18.4 3.3 10.7 0 15.5-1.7 20.7-3.6.8-.3 6.5-2.8 7-3v13.8c-6.1 2.3-11.4 3.9-15.9 4.7-4.6.8-10.6 1.2-18 1.2zm-20.4-35.4 40.5-1c-.2-5.3-2-9.2-5.2-11.5-3.2-2.3-8.2-3.5-14.9-3.5-6.5 0-11.3 1.2-14.6 3.7-3.3 2.6-5.2 6.7-5.8 12.3z" class="st1"/><g id="g182"><path id="path178" d="M953.1 110c1.2-1 1.7-2.3 1.7-4 0-1.7-.6-3-1.7-4-1.2-1-2.8-1.5-4.8-1.5h-6.5v16.1h2.7v-5.2h4.4l3.4 5.2h2.8l-3.7-5.7c.6-.2 1.2-.5 1.7-.9zm-5-.8h-3.6v-6.4h3.6c1.3 0 2.3.3 3 .8.7.6 1.1 1.3 1.1 2.4 0 1-.4 1.8-1.1 2.4-.7.5-1.7.8-3 .8z" class="st1"/><path id="path180" d="M960.7 102.9c-.7-1.7-1.7-3.2-3-4.5-1.3-1.3-2.8-2.3-4.5-3-1.7-.7-3.6-1.1-5.6-1.1-2 0-3.9.4-5.6 1.1-1.7.7-3.3 1.7-4.5 3-1.3 1.3-2.3 2.8-3 4.5-.7 1.7-1.1 3.6-1.1 5.6 0 2 .4 3.8 1.1 5.6.7 1.7 1.7 3.2 3 4.5 1.3 1.3 2.8 2.3 4.5 3 1.7.7 3.6 1.1 5.6 1.1 2 0 3.9-.4 5.6-1.1 1.7-.7 3.2-1.7 4.5-3 1.3-1.3 2.3-2.8 3-4.6.7-1.7 1.1-3.6 1.1-5.6 0-1.9-.3-3.8-1.1-5.5zm-1.7 10.5c-.6 1.5-1.5 2.8-2.6 4-1.1 1.1-2.4 2-4 2.7-1.5.6-3.1 1-4.9 1-1.8 0-3.4-.3-4.9-.9-1.5-.6-2.8-1.5-3.9-2.6s-2-2.4-2.6-4c-.6-1.5-.9-3.1-.9-4.9 0-1.8.3-3.4.9-4.9.6-1.5 1.5-2.8 2.6-4 1.1-1.1 2.4-2 3.9-2.7 1.5-.6 3.2-.9 4.9-.9 1.8 0 3.4.3 4.9.9 1.5.6 2.8 1.5 3.9 2.6s2 2.4 2.6 3.9c.6 1.5.9 3.1.9 4.9.1 1.8-.2 3.4-.8 4.9z" class="st1"/></g><path id="path184" d="M827.3 156.4c-7.6 0-11.9-3.5-14.1-6.7-2.3-3.2-4.1-7.3-4.1-16.3V107h-8.7V94.6h11.2v-17h14.8v17h17.5V107h-17.5v22.7c-.1 6.8 1 9.2 2.6 10.9 2.9 2.9 11.7.9 14.9-1.1v13.1c-3.8 2.6-10.5 3.8-16.6 3.8z" class="st1"/></g></g></g></svg>