<svg width="1000" height="1000" viewBox="0 0 1000 1000" fill="none" xmlns="http://www.w3.org/2000/svg">
<g clip-path="url(#clip0_3257_4304)">
<path d="M501.39 1.52588e-05L393.81 301.62L466.941 301.643C519.621 301.658 542.039 343.194 525.45 389.709L418.48 689.619H310.84L428.53 359.619H373.108L255.428 689.619H146.858L388.338 12.5089C165.958 63.2399 -0.00195312 262.219 -0.00195312 499.969C-0.00195312 734.019 160.818 930.479 377.978 984.949L621.948 299.939H798.638C835.183 299.939 881.146 324.58 861.284 380.663L762.081 660.773C749.409 696.553 719.288 703.804 695.292 703.804H586.672L481.322 999.594C487.525 999.821 493.74 999.977 499.994 999.977C776.134 999.977 999.994 776.127 999.994 499.977C999.993 224.297 776.884 0.747314 501.374 -0.00268555L501.39 1.52588e-05ZM709.54 358.81L607.07 646.45H661.637L764.127 358.81H709.54Z" fill="#0096D6"/>
</g>
<defs>
<clipPath id="clip0_3257_4304">
<rect width="1000" height="999.98" fill="white"/>
</clipPath>
</defs>
</svg>
