<svg width="124" height="24" viewBox="0 0 124 24" fill="none" xmlns="http://www.w3.org/2000/svg">
    <path d="M75.7577 4.64736V20.182H80.1207V4.64736H75.7577ZM41.4297 4.62103V20.1689H45.8321V8.09659L49.2649 8.10975C50.3916 8.10975 51.1778 8.38622 51.715 8.96548C52.4094 9.70271 52.6846 10.9007 52.6846 13.0729V20.1689H56.9559V11.5853C56.9559 5.45043 53.0645 4.62103 49.2649 4.62103H41.4297ZM82.7936 4.64736V20.182H89.8688C93.6423 20.182 94.8739 19.5501 96.1972 18.1415C97.1406 17.1541 97.7433 14.9687 97.7433 12.5858C97.7433 10.4005 97.2323 8.45204 96.3283 7.24086C94.7298 5.06864 92.3976 4.64736 88.9124 4.64736H82.7936ZM87.1174 8.0176H88.991C91.7163 8.0176 93.472 9.24194 93.472 12.4279C93.472 15.6138 91.7163 16.8513 88.991 16.8513H87.1174V8.0176ZM69.4686 4.64736L65.8261 16.9566L62.3409 4.64736H57.6241L62.603 20.182H68.8921L73.9234 4.64736H69.4686ZM99.7873 20.182H104.15V4.64736H99.7873V20.182ZM112.025 4.64736L105.932 20.1689H110.23L111.199 17.4174H118.406L119.323 20.1557H124L117.855 4.64736H112.025ZM114.855 7.47783L117.502 14.7449H112.13L114.855 7.47783Z" fill="black"/>
    <path d="M13.2726 7.22769V5.09497C13.4823 5.0818 13.6919 5.06864 13.9015 5.06864C19.7189 4.88433 23.5317 10.0977 23.5317 10.0977C23.5317 10.0977 19.4176 15.8376 15.0021 15.8376C14.4125 15.8376 13.836 15.7454 13.2857 15.5611V9.08395C15.5524 9.36042 16.011 10.361 17.3605 12.6385L20.3872 10.0845C20.3872 10.0845 18.1729 7.17503 14.4518 7.17503C14.0588 7.16187 13.6657 7.1882 13.2726 7.22769ZM13.2726 0.171265V3.35719L13.9015 3.31769C21.9856 3.04123 27.2659 9.97917 27.2659 9.97917C27.2659 9.97917 21.2126 17.3779 14.9104 17.3779C14.3601 17.3779 13.8229 17.3252 13.2857 17.2331V19.2078C13.7312 19.2605 14.1898 19.3 14.6353 19.3C20.5051 19.3 24.7502 16.2852 28.8643 12.7307C29.5457 13.2836 32.3364 14.6132 32.9129 15.1925C29.0085 18.4837 19.9024 21.1299 14.7401 21.1299C14.2422 21.1299 13.7705 21.1036 13.2988 21.0509V23.8287H35.5989V0.171265L13.2726 0.171265ZM13.2726 15.5611V17.2462C7.84827 16.272 6.34151 10.5979 6.34151 10.5979C6.34151 10.5979 8.94886 7.70163 13.2726 7.22769V9.07079H13.2595C10.9928 8.79432 9.21091 10.927 9.21091 10.927C9.21091 10.927 10.2198 14.5211 13.2726 15.5611ZM3.64243 10.361C3.64243 10.361 6.8525 5.59523 13.2857 5.09497V3.35719C6.15807 3.93645 0 9.99234 0 9.99234C0 9.99234 3.48521 20.1294 13.2726 21.0509V19.2078C6.09256 18.3126 3.64243 10.361 3.64243 10.361Z" fill="#76B900"/>
</svg>
