<svg xmlns="http://www.w3.org/2000/svg" width="86.602" height="60.041" fill="none"><path fill="#00a1e0" fill-rule="evenodd" d="m21.409.017-.51.046c-4.418.407-8.656 2.69-11.466 6.18a16.827 16.827 0 0 0-3.05 5.861A16.69 16.69 0 0 0 6.96 22.9c.1.247.159.428.136.435-.106.035-1.296.853-1.644 1.13a14.71 14.71 0 0 0-3.446 3.89 14.41 14.41 0 0 0-1.805 4.582c-.205.986-.212 1.104-.197 3.137.012 1.852.012 1.855.104 2.345.594 3.139 1.999 5.775 4.224 7.928A14.301 14.301 0 0 0 11.5 50.12c1.025.205 1.739.272 2.86.272 1.06 0 1.799-.07 2.946-.283.016 0 .111.202.212.453a15.632 15.632 0 0 0 5.818 7.078 15.522 15.522 0 0 0 5.652 2.297l.512.103h4.889l.459-.083a15.63 15.63 0 0 0 10.54-7.37c.18-.304.863-1.626.91-1.767.004-.014.172.05.37.141a13.667 13.667 0 0 0 3.275.999c.873.152 1.13.17 2.379.17 1.042 0 1.254-.01 1.72-.077a13.439 13.439 0 0 0 4.228-1.272 13.25 13.25 0 0 0 3.516-2.464 13.573 13.573 0 0 0 2.297-2.893c.094-.159.148-.223.186-.212.111.035 1.1.186 1.535.235 5.56.631 11.082-1.25 15.1-5.14a18.668 18.668 0 0 0 5.274-9.437c.28-1.295.389-2.255.414-3.653a17.026 17.026 0 0 0-.13-2.732 18.695 18.695 0 0 0-6.659-12.076 18.583 18.583 0 0 0-9.229-4.08 19.01 19.01 0 0 0-5.625.049c-1.513.247-3.102.706-4.39 1.274l-.194.085-.33-.534c-3.348-5.422-9.57-8.218-15.785-7.098-2.955.534-5.646 1.92-7.905 4.07l-.378.36-.308-.379A16.81 16.81 0 0 0 26.728.49a17.629 17.629 0 0 0-2.803-.46c-.355-.031-2.228-.04-2.516-.013ZM51.335 21.06c.295.067.406.12.422.202.012.065-.346 1.09-.415 1.184-.036.05-.071.047-.396-.018-.417-.085-.74-.072-1.048.04a1.39 1.39 0 0 0-.658.635 5.562 5.562 0 0 0-.28.995 2.13 2.13 0 0 1-.04.195c-.015.053.046.058.861.067l.877.008.01.095c.017.148-.167 1.112-.225 1.177-.046.053-.134.06-.914.06-.473 0-.86.006-.86.018 0 .039-1.158 6.502-1.206 6.728-.4 1.903-1.067 2.835-2.244 3.14a5.32 5.32 0 0 1-1.524.07c-.353-.062-.664-.168-.703-.24-.028-.054.008-.188.177-.65l.214-.583.12.006c.065 0 .226.03.357.062.277.065.69.051.938-.035.42-.143.713-.608.948-1.511.052-.207.36-1.828.678-3.599.318-1.772.589-3.264.6-3.313l.017-.092-.622-.01-.622-.008-.01-.095a7.642 7.642 0 0 1 .203-1.177c.026-.053.094-.06.652-.06h.619l.08-.414c.247-1.302.741-2.144 1.531-2.598.202-.115.71-.283.987-.323.305-.048 1.19-.02 1.475.044zm-22.175.12c.044.027.051.672.058 5.401.008 4.777.002 5.38-.042 5.45-.053.078-.053.08-.792.08-.53 0-.753-.012-.781-.04-.06-.061-.06-10.826 0-10.884.05-.05 1.477-.056 1.555-.006zm-12.612 3.056a5.63 5.63 0 0 1 1.446.48c.27.142.306.172.315.26.013.133-.338 1.063-.423 1.12-.053.034-.113.017-.389-.107a4.835 4.835 0 0 0-2.078-.45c-.304.01-.417.028-.553.088-.329.148-.525.417-.525.724-.001.221.064.357.247.516.223.197.515.326 1.414.626 1.469.49 2.033.847 2.356 1.497.23.46.248 1.133.044 1.714-.275.79-.944 1.326-1.905 1.524-.735.153-1.815.083-2.616-.17-.369-.117-1.145-.5-1.293-.636l-.119-.113.167-.468c.243-.69.26-.722.353-.722.044 0 .244.098.442.216.714.424 1.258.59 2.034.619.449.017.523.01.746-.057a.825.825 0 0 0 .438-.265c.22-.22.294-.405.265-.679-.02-.212-.127-.372-.348-.524-.231-.16-.527-.274-1.378-.538-1.14-.353-1.595-.583-1.982-.998-.441-.474-.6-1.216-.411-1.939.25-.963 1.095-1.624 2.262-1.77.336-.042 1.092-.017 1.491.052zm26.037-.002c.742.133 1.696.514 1.767.71.017.046-.035.23-.164.575-.106.277-.205.525-.22.548-.045.067-.183.046-.4-.062-.64-.322-1.743-.546-2.297-.468-.55.077-.892.39-.894.818 0 .321.195.551.66.767.151.07.636.249 1.074.397.905.304 1.16.412 1.495.628.474.302.755.643.89 1.078.107.336.107.935-.001 1.317-.306 1.08-1.206 1.687-2.605 1.76a5.49 5.49 0 0 1-2.77-.584c-.46-.238-.578-.329-.578-.435 0-.076.306-.966.378-1.102.053-.101.177-.068.523.14.766.464 1.518.669 2.339.637.325-.012.41-.028.593-.111.488-.218.714-.71.513-1.122-.143-.296-.488-.47-1.601-.817a15.446 15.446 0 0 1-1.08-.371c-.754-.324-1.218-.792-1.38-1.39a2.375 2.375 0 0 1 .294-1.85c.39-.601 1.075-.992 1.944-1.113.292-.043 1.172-.013 1.52.05zm26.478-.012c.304.035.956.18 1.166.261.053.022.103.06.113.089.021.053-.34 1.088-.414 1.187-.037.053-.069.05-.41-.033-.66-.16-1.449-.195-1.908-.089-.728.174-1.255.751-1.485 1.635-.201.762-.102 1.95.207 2.515.415.758 1.214 1.131 2.274 1.064.467-.03.699-.07 1.029-.177.202-.067.299-.085.336-.06.053.032.45 1.06.45 1.166.001.08-.054.113-.364.209-1.491.466-3.206.332-4.188-.325-.636-.426-1.14-1.147-1.377-1.962-.27-.937-.238-2.27.072-3.132.262-.723.65-1.26 1.21-1.679.83-.622 1.846-.829 3.288-.67zm-45.389.013c1.416.24 2.121.994 2.255 2.41.048.494.046 4.978 0 5.066-.051.09-.118.113-.791.25-.893.183-1.37.252-1.936.282-1.91.096-3.029-.323-3.525-1.32-.177-.353-.237-.652-.237-1.14 0-.72.176-1.202.613-1.665.735-.78 1.898-1.104 3.436-.954.323.032.647.067.715.078l.128.02v-.17c0-.277-.068-.687-.142-.858-.17-.389-.629-.619-1.32-.657-.732-.041-1.654.138-2.25.433-.212.106-.305.12-.358.054a6.133 6.133 0 0 1-.227-.56c-.18-.49-.189-.525-.14-.601.154-.23 1.238-.59 2.058-.682a9.208 9.208 0 0 1 1.721.014zm11.582.062c.46.12.832.308 1.162.589.451.383.771.859.946 1.407.168.524.207.823.208 1.555 0 .622-.005.687-.065.75-.066.072-.066.072-2.607.072h-2.543l.018.176c.088.85.34 1.34.878 1.686.424.274 1.078.39 1.871.333.559-.041.884-.103 1.315-.253.248-.083.36-.108.403-.085.055.028.14.231.366.88.106.31.097.33-.214.47-.936.42-2.603.527-3.746.237-.983-.247-1.768-.862-2.199-1.714-.292-.58-.431-1.248-.433-2.084-.002-1.437.364-2.45 1.165-3.208.698-.657 1.497-.936 2.612-.91a3.181 3.181 0 0 1 .862.1zm19.72-.076c1.99.242 3.154 1.861 3.066 4.26-.044 1.183-.382 2.113-1.006 2.763-.666.695-1.529 1.036-2.623 1.036-1.094 0-1.956-.34-2.622-1.036-.626-.653-.962-1.583-1.004-2.776-.068-1.891.618-3.27 1.944-3.915.67-.323 1.41-.433 2.244-.332zm20.226.014c.693.118 1.142.334 1.607.772.479.454.788 1.034.94 1.77.127.61.124 1.756-.003 1.85-.048.035-.59.042-2.591.042h-2.53l.024.255c.129 1.426 1.039 2.068 2.751 1.939.543-.041.937-.119 1.345-.266.297-.11.387-.111.428-.012.124.306.355 1.011.355 1.075 0 .07-.039.102-.245.2-.61.282-1.298.4-2.337.4-.816 0-1.148-.043-1.68-.22-1.582-.523-2.399-1.81-2.399-3.773 0-1.512.518-2.722 1.457-3.403.328-.238.56-.36.915-.477a4.412 4.412 0 0 1 1.965-.152zm-11.56.099c.297.063.357.095.357.19 0 .107-.378 1.123-.442 1.188-.052.057-.079.059-.34.021-.964-.141-1.694.235-2.02 1.04-.188.459-.195.58-.213 2.993-.01 1.47-.028 2.241-.051 2.27-.05.058-1.49.06-1.55 0-.032-.03-.04-.93-.04-3.844 0-3.726 0-3.805.065-3.839.039-.021.34-.035.737-.035.827 0 .795-.018.795.413v.3l.194-.172a3.164 3.164 0 0 1 1.114-.555c.3-.066 1.009-.05 1.394.032zm-29.903 1.25c-.659.16-1.149.747-1.3 1.569a2.598 2.598 0 0 1-.038.176c-.017.055.084.059 1.764.059h1.782l-.03-.228c-.112-.849-.541-1.397-1.241-1.577a2.368 2.368 0 0 0-.937.001zm40.265-.002a1.61 1.61 0 0 0-1.043.822c-.123.233-.295.76-.295.906v.08h3.54l-.023-.16c-.081-.588-.235-.94-.54-1.242-.324-.322-.683-.456-1.203-.45-.143 0-.34.02-.436.043zm-20.064.035c-.654.149-1.096.654-1.292 1.474-.135.566-.152 1.585-.036 2.154.175.849.555 1.377 1.15 1.595.16.058.268.07.653.07.387 0 .49-.01.661-.074.827-.3 1.243-1.168 1.24-2.598 0-1.417-.418-2.283-1.242-2.572a2.653 2.653 0 0 0-1.134-.047zm-31.697 2.868c-.833.182-1.234.666-1.158 1.396.057.557.377.87 1.052 1.025.274.066 1.088.046 1.649-.039.27-.04.503-.08.52-.09.013-.01.025-.517.025-1.127v-1.11l-.11-.018c-.542-.094-1.629-.113-1.979-.035z" clip-rule="evenodd" style="stroke-width:1.76704"/></svg>